<?xml version="1.0" encoding="utf-8"?>
<!-- Generator: Adobe Illustrator 23.0.5, SVG Export Plug-In . SVG Version: 6.00 Build 0)  -->
<svg version="1.1" id="Layer_1" xmlns="http://www.w3.org/2000/svg" xmlns:xlink="http://www.w3.org/1999/xlink" x="0px" y="0px"
	 viewBox="0 0 1280 1024" style="enable-background:new 0 0 1280 1024;" xml:space="preserve">
<style type="text/css">
	.st0{fill:#FFFFFF;}
	.st1{fill:#EE5A24;}
	.st2{fill:#330033;}
	.st3{fill:#EEEBDD;}
	.st4{fill:#EB596E;}
	.st5{fill:#663333;}
</style>
<path class="st0" d="M1001.38,909.41H284.29c-25.85,0-46.81-20.96-46.81-46.81V145.51c0-25.85,20.96-46.81,46.81-46.81h717.09
	c25.85,0,46.81,20.96,46.81,46.81V862.6C1048.19,888.45,1027.23,909.41,1001.38,909.41z"/>
<g>
	<circle class="st2" cx="642.83" cy="443.09" r="289.92"/>
	<g>
		<g>
			<g>
				<path class="st3" d="M773.08,306.16l-313.24,3.24c-5.07,0-8.24,4.97-5.7,8.93c0,0,1.43,1.88,1.44,1.88
					c55.28,72.56,113.27,92.85,199.82,91.83c2.15-0.03,16.16,1.24,17.1-0.14c0,0-0.16,0.23-0.16,0.23l-20.77,32.48l-5.11,8
					c-2.54,3.96-8.9,3.96-11.44,0l-6.17-8.91c-1.33-2.08-3.9-3.22-6.52-2.94l-27.87,3.12c-4.68,0.51-7.26,5.18-4.9,8.88l45.46,70.32
					c2.54,3.96,8.9,3.96,11.44,0l87.93-137.47c2.54-3.96-0.62-8.93-5.7-8.93c-22.64,0-45.28,0-67.92,0
					c-22.29,0-44.71,1.59-66.91-1.1c-10.89-1.32-21.68-3.72-31.9-7.78c-8.01-3.19-23.32-8.75-26.23-17.92
					c-3.37-10.64,16.61-8.43,22.26-8.6c11.04-0.32,22.09,0.12,33.13,0.12c18.58,0,37.16,0,55.73,0c37.1,0,74.2,0,111.3,0
					c2.36,0,4.53-1.13,5.72-2.98l14.91-23.32C781.33,311.13,778.15,306.16,773.08,306.16z"/>
			</g>
		</g>
		<g>
			<g>
				<path class="st4" d="M864.21,323.85c-1.03,2.41-2.45,4.73-3.84,6.91c-68.15,106.75-136.41,213.42-204.79,320.02
					c-3.19,4.97-7.2,10.46-13.09,10.92c-6.86,0.54-11.96-5.97-15.69-11.75c-36.18-56.08-72.37-112.15-108.55-168.23
					c-4.6-7.12-14.18-19.06-8.26-27.25c5.74-7.93,17.33-9.46,25.84-5.4c9.54,4.56,15.73,13.91,21.43,22.82
					c22.9,35.76,45.79,71.52,68.69,107.29c3.22,5.02,7.11,10.51,12.99,11.49c8.22,1.37,14.67-6.61,19.15-13.64
					C709.65,496,761.22,414.98,812.8,333.96c5.97-9.38,12.89-19.81,22.95-25.56c8.96-5.12,26.7-6.77,29.69,6.26
					C866.15,317.78,865.47,320.88,864.21,323.85z"/>
			</g>
		</g>
	</g>
</g>
<path class="st2" d="M415.6,833.18c0.51-2.08,2.71-3.28,4.71-2.53c3.36,1.26,7.49,2.2,11.7,2.2c6.37,0,9.75-2.65,9.75-6.69
	c0-3.77-2.93-5.99-10.28-8.58c-10.24-3.63-16.93-9.21-16.93-18.18c0-10.46,8.79-18.42,23.22-18.42c5.12,0,9.2,0.74,12.44,1.81
	c1.84,0.6,2.89,2.53,2.38,4.39l-1.14,4.13c-0.54,1.98-2.63,3.12-4.57,2.47c-2.42-0.8-5.56-1.5-9.31-1.5c-6.04,0-8.93,2.8-8.93,5.94
	c0,3.9,3.4,5.62,11.36,8.63c10.87,4.06,15.9,9.7,15.9,18.38c0,10.25-7.85,19.04-24.74,19.04c-5.31,0-10.62-1.1-14.35-2.48
	c-1.73-0.64-2.71-2.46-2.27-4.25L415.6,833.18z"/>
<path class="st2" d="M521.48,812.01c0,20.14-12.15,32.31-30.1,32.31c-18.2,0-28.91-13.77-28.91-31.27
	c0-18.35,11.8-32.11,29.88-32.11C511.19,780.94,521.48,795.03,521.48,812.01z M477.14,812.78c0,12.02,5.67,20.5,14.93,20.5
	c9.38,0,14.75-8.86,14.75-20.8c0-11.06-5.23-20.51-14.78-20.51C482.63,791.97,477.14,800.84,477.14,812.78z"/>
<path class="st2" d="M586.77,812.01c0,20.14-12.15,32.31-30.1,32.31c-18.2,0-28.91-13.77-28.91-31.27
	c0-18.35,11.8-32.11,29.88-32.11C576.47,780.94,586.77,795.03,586.77,812.01z M542.43,812.78c0,12.02,5.67,20.5,14.93,20.5
	c9.38,0,14.75-8.86,14.75-20.8c0-11.06-5.23-20.51-14.78-20.51C547.92,791.97,542.43,800.84,542.43,812.78z"/>
<path class="st2" d="M595.92,785.9c0-1.81,1.34-3.35,3.14-3.57c4.18-0.52,9.5-0.87,15.31-0.87c9.1,0,15.48,1.39,19.86,4.86
	c3.66,2.91,5.68,7.22,5.68,12.87c0,7.77-5.56,13.19-10.84,15.08v0.29c4.26,1.72,6.65,5.79,8.2,11.43c1.2,4.39,2.38,9.2,3.39,12.74
	c0.65,2.3-1.08,4.58-3.47,4.58h-6.77c-1.53,0-2.89-0.95-3.39-2.39c-0.89-2.54-2.01-6.56-3.24-11.91c-1.71-7.67-4.29-9.72-10-9.79
	h-0.52c-1.99,0-3.6,1.61-3.6,3.6v16.9c0,1.99-1.61,3.6-3.6,3.6h-6.55c-1.99,0-3.6-1.61-3.6-3.6V785.9z M609.68,805.57
	c0,1.99,1.61,3.6,3.6,3.6h1.83c6.89,0,11-3.51,11-8.84c0-5.62-3.85-8.49-10.19-8.53c-1.07,0-2,0.02-2.8,0.06
	c-1.93,0.09-3.44,1.67-3.44,3.6V805.57z"/>
<path class="st2" d="M664.24,830.2l-2.88,10.46c-0.43,1.56-1.85,2.65-3.47,2.65h-6.74c-2.42,0-4.15-2.34-3.44-4.65l16.53-54.17
	c0.46-1.52,1.86-2.55,3.44-2.55h12.84c1.58,0,2.97,1.03,3.44,2.53l16.86,54.17c0.72,2.32-1.01,4.67-3.44,4.67h-7.38
	c-1.59,0-2.99-1.04-3.45-2.57l-3.18-10.62c-0.46-1.52-1.86-2.57-3.45-2.57h-12.22C666.09,827.56,664.67,828.64,664.24,830.2z
	 M675.75,817.22c2.4,0,4.13-2.31,3.46-4.61l-2.47-8.43c-1.05-3.63-2.14-8.23-3.08-11.82h-0.19c-0.9,3.61-1.83,8.27-2.81,11.83
	l-2.38,8.45c-0.65,2.3,1.08,4.58,3.47,4.58H675.75z"/>
<path class="st2" d="M728.41,781.94h6.67c1.99,0,3.6,1.61,3.6,3.6v35.22c0,17.42-8.37,23.56-21.84,23.56
	c-2.08,0-4.55-0.21-6.77-0.61c-1.91-0.35-3.21-2.13-2.94-4.05l0.57-4.11c0.28-1.97,2.1-3.36,4.07-3.07
	c1.12,0.17,2.31,0.27,3.55,0.27c5.82,0,9.49-2.61,9.49-12.16v-35.05C724.81,783.55,726.42,781.94,728.41,781.94z"/>
<path class="st2" d="M773.35,793.59h-9.36c-1.99,0-3.6-1.61-3.6-3.6v-4.45c0-1.99,1.61-3.6,3.6-3.6h40.04c1.99,0,3.6,1.61,3.6,3.6
	v4.45c0,1.99-1.61,3.6-3.6,3.6h-9.59c-1.99,0-3.6,1.61-3.6,3.6v42.52c0,1.99-1.61,3.6-3.6,3.6h-6.67c-1.99,0-3.6-1.61-3.6-3.6
	v-42.52C776.95,795.2,775.34,793.59,773.35,793.59z"/>
<path class="st2" d="M832.82,833.18c0.51-2.08,2.71-3.28,4.71-2.53c3.36,1.26,7.49,2.2,11.7,2.2c6.37,0,9.75-2.65,9.75-6.69
	c0-3.77-2.93-5.99-10.28-8.58c-10.24-3.63-16.93-9.21-16.93-18.18c0-10.46,8.79-18.42,23.22-18.42c5.12,0,9.2,0.74,12.44,1.81
	c1.84,0.6,2.89,2.53,2.38,4.39l-1.14,4.13c-0.54,1.98-2.63,3.12-4.57,2.47c-2.42-0.8-5.56-1.5-9.31-1.5c-6.04,0-8.93,2.8-8.93,5.94
	c0,3.9,3.4,5.62,11.36,8.63c10.87,4.06,15.9,9.7,15.9,18.38c0,10.25-7.85,19.04-24.74,19.04c-5.31,0-10.62-1.1-14.35-2.48
	c-1.73-0.64-2.71-2.46-2.27-4.25L832.82,833.18z"/>
</svg>
