<?xml version="1.0" encoding="utf-8"?>
<!-- Generator: Adobe Illustrator 23.0.5, SVG Export Plug-In . SVG Version: 6.00 Build 0)  -->
<svg version="1.1" id="Layer_1" xmlns="http://www.w3.org/2000/svg" xmlns:xlink="http://www.w3.org/1999/xlink" x="0px" y="0px"
	 viewBox="0 0 1280 1024" style="enable-background:new 0 0 1280 1024;" xml:space="preserve">
<style type="text/css">
	.st0{fill:#FFFFFF;}
	.st1{fill:#EE5A24;}
	.st2{fill:#330033;}
	.st3{fill:#EEEBDD;}
	.st4{fill:#EB596E;}
	.st5{fill:#663333;}
</style>
<path class="st0" d="M998.55,909.41H281.45c-25.85,0-46.81-20.96-46.81-46.81V145.51c0-25.85,20.96-46.81,46.81-46.81h717.09
	c25.85,0,46.81,20.96,46.81,46.81V862.6C1045.36,888.45,1024.4,909.41,998.55,909.41z"/>
<g>
	<circle class="st2" cx="640" cy="443.09" r="289.92"/>
	<g>
		<g>
			<g>
				<path class="st3" d="M770.24,306.16l-313.24,3.24c-5.07,0-8.24,4.97-5.7,8.93c0,0,1.43,1.88,1.44,1.88
					c55.28,72.56,113.27,92.85,199.82,91.83c2.15-0.03,16.16,1.24,17.1-0.14c0,0-0.16,0.23-0.16,0.23l-20.77,32.48l-5.11,8
					c-2.54,3.96-8.9,3.96-11.44,0l-6.17-8.91c-1.33-2.08-3.9-3.22-6.52-2.94l-27.87,3.12c-4.68,0.51-7.26,5.18-4.9,8.88l45.46,70.32
					c2.54,3.96,8.9,3.96,11.44,0l87.93-137.47c2.54-3.96-0.62-8.93-5.7-8.93c-22.64,0-45.28,0-67.92,0
					c-22.29,0-44.71,1.59-66.91-1.1c-10.89-1.32-21.68-3.72-31.9-7.78c-8.01-3.19-23.32-8.75-26.23-17.92
					c-3.37-10.64,16.61-8.43,22.26-8.6c11.04-0.32,22.09,0.12,33.13,0.12c18.58,0,37.16,0,55.73,0c37.1,0,74.2,0,111.3,0
					c2.36,0,4.53-1.13,5.72-2.98l14.91-23.32C778.5,311.13,775.32,306.16,770.24,306.16z"/>
			</g>
		</g>
		<g>
			<g>
				<path class="st4" d="M861.37,323.85c-1.03,2.41-2.45,4.73-3.84,6.91c-68.15,106.75-136.41,213.42-204.79,320.02
					c-3.19,4.97-7.2,10.46-13.09,10.92c-6.86,0.54-11.96-5.97-15.69-11.75c-36.18-56.08-72.37-112.15-108.55-168.23
					c-4.6-7.12-14.18-19.06-8.26-27.25c5.74-7.93,17.33-9.46,25.84-5.4c9.54,4.56,15.73,13.91,21.43,22.82
					c22.9,35.76,45.79,71.52,68.69,107.29c3.22,5.02,7.11,10.51,12.99,11.49c8.22,1.37,14.67-6.61,19.15-13.64
					C706.82,496,758.39,414.98,809.96,333.96c5.97-9.38,12.89-19.81,22.95-25.56c8.96-5.12,26.7-6.77,29.69,6.26
					C863.31,317.78,862.64,320.88,861.37,323.85z"/>
			</g>
		</g>
	</g>
</g>
<g>
	<g>
		<path class="st2" d="M447.83,832.44c0.42-1.73,2.27-2.69,3.92-2.03c3.46,1.37,7.84,2.44,12.3,2.44c6.37,0,9.75-2.65,9.75-6.69
			c0-3.77-2.93-5.99-10.28-8.58c-10.24-3.63-16.93-9.21-16.93-18.18c0-10.46,8.79-18.42,23.22-18.42c5.5,0,9.8,0.86,13.15,2.05
			c1.45,0.52,2.24,2.07,1.83,3.55l-1.49,5.42c-0.45,1.64-2.2,2.56-3.81,1.99c-2.49-0.89-5.83-1.7-9.89-1.7
			c-6.04,0-8.93,2.8-8.93,5.94c0,3.9,3.4,5.62,11.36,8.63c10.87,4.06,15.9,9.7,15.9,18.38c0,10.25-7.85,19.04-24.74,19.04
			c-5.62,0-11.24-1.23-15-2.72c-1.36-0.54-2.12-2-1.77-3.43L447.83,832.44z"/>
		<path class="st2" d="M541.49,820.58c0,16.29-11.54,23.73-23.49,23.73c-12.97,0-23.01-8.57-23.01-22.96
			c0-14.38,9.49-23.61,23.81-23.61C532.43,797.74,541.49,807.12,541.49,820.58z M509.27,821.04c0,7.61,3.21,13.38,9.12,13.38
			c5.4,0,8.82-5.41,8.82-13.45c0-6.57-2.53-13.33-8.81-13.33C511.79,807.64,509.27,814.43,509.27,821.04z"/>
		<path class="st2" d="M594.3,820.58c0,16.29-11.54,23.73-23.49,23.73c-12.97,0-23.01-8.57-23.01-22.96
			c0-14.38,9.49-23.61,23.81-23.61C585.24,797.74,594.3,807.12,594.3,820.58z M562.08,821.04c0,7.61,3.21,13.38,9.12,13.38
			c5.4,0,8.82-5.41,8.82-13.45c0-6.57-2.53-13.33-8.81-13.33C564.6,807.64,562.08,814.43,562.08,821.04z"/>
		<path class="st2" d="M602.87,813.43c0-4.88-0.07-8.51-0.2-11.64c-0.07-1.67,1.27-3.05,2.93-3.05h6.05c1.55,0,2.84,1.21,2.93,2.76
			l0.34,5.49h0.34c2.29-6.52,7.71-9.25,12.03-9.25c0.01,0,0.03,0,0.04,0c1.62,0,2.92,1.32,2.92,2.94v7.03c0,1.65-1.35,3.01-3,2.95
			c-0.24-0.01-0.48-0.01-0.74-0.01c-5.09,0-8.57,2.7-9.5,7.04c-0.17,0.88-0.26,1.96-0.26,3.08v19.62c0,1.62-1.31,2.94-2.94,2.94h-8
			c-1.62,0-2.94-1.31-2.94-2.94V813.43z"/>
		<path class="st2" d="M664.29,843.31c-1.42,0-2.63-1.01-2.89-2.4l-0.37-2.03h-0.29c-2.91,3.55-7.46,5.43-12.73,5.43
			c-9.08,0-14.41-6.52-14.41-13.64c0-11.61,10.39-17.12,26.16-17.09v-0.57c0-2.37-1.27-5.75-8.16-5.74c-3.24,0-6.61,0.79-9.35,1.89
			c-1.61,0.65-3.43-0.28-3.91-1.95l-0.9-3.11c-0.41-1.43,0.31-2.93,1.67-3.52c3.41-1.46,8.55-2.84,14.97-2.84
			c14.84,0,19.53,8.77,19.53,19.24v15.54c0,2.74,0.09,5.4,0.29,7.61c0.15,1.71-1.21,3.18-2.93,3.18H664.29z M660.16,825.27
			c0-1.7-1.43-3.07-3.13-2.93c-5.71,0.45-9.8,2.4-9.8,6.92c0,3.59,2.35,5.34,5.5,5.34c3.39,0,6.26-2.26,7.17-5.12
			c0.21-0.72,0.26-1.58,0.26-2.37V825.27z"/>
		<path class="st2" d="M675.77,854.42c-0.19-1.54,0.86-2.94,2.38-3.24c2.31-0.46,4.17-1.26,5.44-2.58
			c2.01-2.07,2.76-5.63,2.76-14.51v-32.41c0-1.62,1.31-2.94,2.94-2.94h8c1.62,0,2.94,1.31,2.94,2.94v35.75
			c0,9.71-2.13,15.61-6.26,19.48c-3.54,3.23-8.83,4.92-14.47,5.33c-1.54,0.11-2.89-1.04-3.08-2.58L675.77,854.42z M700.58,786.37
			c0.02,3.84-2.82,6.92-7.44,6.92c-4.41,0-7.23-3.08-7.22-6.92c-0.02-3.96,2.89-6.94,7.35-6.94
			C697.74,779.43,700.52,782.41,700.58,786.37z"/>
		<path class="st2" d="M735.31,793.59h-10.69c-1.62,0-2.94-1.31-2.94-2.94v-5.78c0-1.62,1.31-2.94,2.94-2.94h41.37
			c1.62,0,2.94,1.31,2.94,2.94v5.78c0,1.62-1.31,2.94-2.94,2.94h-10.92c-1.62,0-2.94,1.31-2.94,2.94v43.85
			c0,1.62-1.31,2.94-2.94,2.94h-8c-1.62,0-2.94-1.31-2.94-2.94v-43.85C738.25,794.9,736.93,793.59,735.31,793.59z"/>
		<path class="st2" d="M794.3,832.44c0.42-1.73,2.27-2.69,3.92-2.03c3.46,1.37,7.84,2.44,12.3,2.44c6.37,0,9.75-2.65,9.75-6.69
			c0-3.77-2.93-5.99-10.28-8.58c-10.24-3.63-16.93-9.21-16.93-18.18c0-10.46,8.79-18.42,23.22-18.42c5.5,0,9.8,0.86,13.15,2.05
			c1.45,0.52,2.24,2.07,1.83,3.55l-1.49,5.42c-0.45,1.64-2.2,2.56-3.8,1.99c-2.49-0.89-5.83-1.7-9.89-1.7
			c-6.04,0-8.93,2.8-8.93,5.94c0,3.9,3.4,5.62,11.36,8.63c10.87,4.06,15.9,9.7,15.9,18.38c0,10.25-7.85,19.04-24.74,19.04
			c-5.62,0-11.24-1.23-15-2.72c-1.36-0.54-2.12-2-1.77-3.43L794.3,832.44z"/>
	</g>
</g>
</svg>
